<mxfile host="app.diagrams.net" modified="2023-04-25T08:18:01.176Z" agent="Mozilla/5.0 (Windows NT 10.0; Win64; x64) AppleWebKit/537.36 (KHTML, like Gecko) Chrome/112.0.0.0 Safari/537.36 Edg/112.0.1722.58" version="21.2.1" etag="xJQSJXtQAHlyDsoK48EW" type="github">
  <diagram name="StrÃ¡nka-1" id="vjlrB2uIoSIy6NF_tK0_">
    <mxGraphModel>
      <root>
        <mxCell id="0" />
        <mxCell id="1" parent="0" />
      </root>
    </mxGraphModel>
  </diagram>
</mxfile>
